# xmcd
#
# Track frame offsets:
#	150
#	14283
#	25642
#	39379
#	49863
#	64400
#	76142
#	85920
#	99204
#	111665
#	124969
#	134654
#	147012
#	156942
#	170858
#
# Disc length: 2427 seconds
#
# Revision: 1
# Processed by: cddbd v1.5.2PL0 Copyright (c) Steve Scherf et al.
# Submitted via: audiograbber 1.83.01
#
DISCID=cd09790f
DTITLE=Various Artist - RB0022
DYEAR=1900
DGENRE=Karaoke
TTITLE0=Sam Cooke - You Send Me
TTITLE1=Little Richard - Slippin and Slidin
TTITLE2=Dells - Oh What a Night
TTITLE3=Fats Domino - Let the Four Winds Blow
TTITLE4=Faye Adams - Shake a Hand
TTITLE5=Brook Benton - Fools Rush In
TTITLE6=Hank Ballard and Midnighters - Finger Poppin Time
TTITLE7=Sam Cooke - Twisting the Night Away
TTITLE8=Bobby Bland - Turn on Your Light
TTITLE9=Bo Diddy - Road Runner
TTITLE10=Fats Domino - Walking to New Orleans
TTITLE11=Gary Bonds - Quarter to Three
TTITLE12=James Brown - Paps's Got a Brand New Bag
TTITLE13=Flannigans - I'll Be Home
TTITLE14=Brook Benton - Endlessly
EXTD="R and B Karaoke" Series (from Canada)
EXTT0=
EXTT1=
EXTT2=
EXTT3=
EXTT4=
EXTT5=
EXTT6=
EXTT7=
EXTT8=
EXTT9=
EXTT10=
EXTT11=
EXTT12=
EXTT13=
EXTT14=
PLAYORDER=
